<?xml version="1.0" encoding="UTF-8" standalone="no"?>
<!DOCTYPE svg PUBLIC "-//W3C//DTD SVG 1.1//EN"
 "http://www.w3.org/Graphics/SVG/1.1/DTD/svg11.dtd">
<!-- Generated by graphviz version 2.38.0 (20140413.2041)
 -->
<!-- Title: dependencies Pages: 1 -->
<svg width="576pt" height="717pt"
 viewBox="0.00 0.00 576.00 717.40" xmlns="http://www.w3.org/2000/svg" xmlns:xlink="http://www.w3.org/1999/xlink">
<g id="graph0" class="graph" transform="scale(0.985438 0.985438) rotate(0) translate(4 724)">
<title>dependencies</title>
<polygon fill="white" stroke="none" points="-4,4 -4,-724 580.512,-724 580.512,4 -4,4"/>
<!-- joy/utils/polytypes.py -->
<g id="node1" class="node"><title>joy/utils/polytypes.py</title>
<ellipse fill="lightgrey" stroke="black" cx="89.5115" cy="-316.355" rx="62.9739" ry="18"/>
<text text-anchor="middle" x="89.5115" y="-313.855" font-family="Times,serif" font-size="10.00">joy/utils/polytypes.py</text>
</g>
<!-- joy/library.py -->
<g id="node2" class="node"><title>joy/library.py</title>
<ellipse fill="none" stroke="black" cx="304.512" cy="-636.355" rx="42.9448" ry="18"/>
<text text-anchor="middle" x="304.512" y="-633.855" font-family="Times,serif" font-size="10.00">joy/library.py</text>
</g>
<!-- joy/utils/polytypes.py&#45;&gt;joy/library.py -->
<g id="edge1" class="edge"><title>joy/utils/polytypes.py&#45;&gt;joy/library.py</title>
<path fill="none" stroke="black" d="M102.267,-334.015C137.761,-387.34 243.984,-546.924 286.065,-610.145"/>
<polygon fill="black" stroke="black" points="283.338,-612.364 291.793,-618.749 289.165,-608.485 283.338,-612.364"/>
</g>
<!-- joy/parser.py -->
<g id="node3" class="node"><title>joy/parser.py</title>
<ellipse fill="none" stroke="black" cx="503.512" cy="-376.355" rx="41.4139" ry="18"/>
<text text-anchor="middle" x="503.512" y="-373.855" font-family="Times,serif" font-size="10.00">joy/parser.py</text>
</g>
<!-- joy/utils/polytypes.py&#45;&gt;joy/parser.py -->
<g id="edge2" class="edge"><title>joy/utils/polytypes.py&#45;&gt;joy/parser.py</title>
<path fill="none" stroke="black" d="M146.076,-324.447C227.321,-336.279 377.21,-358.107 454.155,-369.313"/>
<polygon fill="black" stroke="black" points="453.665,-372.778 464.065,-370.756 454.674,-365.851 453.665,-372.778"/>
</g>
<!-- joy/utils/stack.py -->
<g id="node4" class="node"><title>joy/utils/stack.py</title>
<ellipse fill="none" stroke="black" cx="503.512" cy="-83.3548" rx="51.6054" ry="18"/>
<text text-anchor="middle" x="503.512" y="-80.8548" font-family="Times,serif" font-size="10.00">joy/utils/stack.py</text>
</g>
<!-- joy/utils/polytypes.py&#45;&gt;joy/utils/stack.py -->
<g id="edge3" class="edge"><title>joy/utils/polytypes.py&#45;&gt;joy/utils/stack.py</title>
<path fill="none" stroke="black" d="M107.519,-299.075C135.536,-271.383 194.094,-216.697 252.121,-182.355 317.69,-143.549 401.268,-114.025 453.342,-97.6949"/>
<polygon fill="black" stroke="black" points="454.487,-101.004 463.005,-94.703 452.417,-94.3176 454.487,-101.004"/>
</g>
<!-- joy/utils/types.py -->
<g id="node5" class="node"><title>joy/utils/types.py</title>
<ellipse fill="lightgrey" stroke="black" cx="304.512" cy="-209.355" rx="52.2822" ry="18"/>
<text text-anchor="middle" x="304.512" y="-206.855" font-family="Times,serif" font-size="10.00">joy/utils/types.py</text>
</g>
<!-- joy/utils/polytypes.py&#45;&gt;joy/utils/types.py -->
<g id="edge4" class="edge"><title>joy/utils/polytypes.py&#45;&gt;joy/utils/types.py</title>
<path fill="none" stroke="black" d="M121.484,-300.796C159.484,-281.707 223.915,-249.34 265.05,-228.676"/>
<polygon fill="black" stroke="black" points="266.85,-231.688 274.215,-224.072 263.708,-225.433 266.85,-231.688"/>
</g>
<!-- joy/utils/types.py&#45;&gt;joy/parser.py -->
<g id="edge5" class="edge"><title>joy/utils/types.py&#45;&gt;joy/parser.py</title>
<path fill="none" stroke="black" d="M325.121,-225.978C360.721,-256.157 435.999,-319.971 476.088,-353.955"/>
<polygon fill="black" stroke="black" points="473.957,-356.737 483.848,-360.533 478.483,-351.397 473.957,-356.737"/>
</g>
<!-- joy/utils/types.py&#45;&gt;joy/utils/stack.py -->
<g id="edge6" class="edge"><title>joy/utils/types.py&#45;&gt;joy/utils/stack.py</title>
<path fill="none" stroke="black" d="M330.462,-193.397C365.691,-170.864 430.084,-129.679 469.317,-104.586"/>
<polygon fill="black" stroke="black" points="471.225,-107.52 477.764,-99.1833 467.454,-101.623 471.225,-107.52"/>
</g>
</g>
</svg>
